<svg width="826" height="439" viewBox="0 0 826 439" fill="none" xmlns="http://www.w3.org/2000/svg">
<g clip-path="url(#clip0_1_2)">
<path d="M826 0H0V439H826V0Z" fill="#F9EDDD"/>
<path d="M52.2132 155.004H53.6692L56.6092 163.642H56.6652L59.6332 155.004H61.0892L57.4772 164.986L55.7972 165L52.2132 155.004ZM67.4597 162.844C67.0537 164.384 65.8357 165.168 64.2257 165.168C62.0837 165.168 60.6697 163.614 60.6697 161.346C60.6697 159.162 62.1537 157.594 64.1977 157.594C66.7457 157.594 67.5437 159.638 67.5717 161.5V161.724H61.8877C61.9857 163.236 62.9097 164.118 64.1977 164.118C65.1637 164.118 65.9757 163.74 66.2277 162.844H67.4597ZM61.9017 160.716H66.2977C66.1857 159.456 65.4857 158.63 64.1977 158.63C62.8957 158.63 62.0697 159.47 61.9017 160.716ZM70.2253 157.762V159.218C70.5893 158.154 71.2893 157.734 72.3813 157.734V158.938C72.3253 158.938 72.1013 158.952 71.9193 158.98C71.0793 159.106 70.2253 159.484 70.2253 161.584V165H68.9653V157.762H70.2253ZM74.8217 156.404H73.4777V155.004H74.8217V156.404ZM73.4497 165V157.762H74.7097V165H73.4497ZM76.8935 156.95C76.8935 155.942 77.4395 155.004 78.7275 155.004H79.5115V156.068H79.0495C78.5035 156.068 78.1255 156.25 78.1255 157.006V157.762H79.3435V158.798H78.1255V165H76.8935V158.798H75.8995V157.762H76.8935V156.95ZM80.6595 165V157.762H81.9195V165H80.6595ZM80.6875 156.404V155.004H82.0315V156.404H80.6875ZM90.2947 162.788C89.8887 164.3 88.8387 165.168 87.0887 165.168C84.8347 165.168 83.3787 163.572 83.3787 161.388C83.3787 159.204 84.8347 157.594 87.0887 157.594C88.9367 157.594 89.9307 158.616 90.2387 159.932H88.9787C88.7127 159.274 88.2227 158.63 87.0467 158.63C85.5767 158.63 84.6387 159.834 84.6387 161.388C84.6387 162.928 85.5767 164.118 87.0467 164.118C88.0967 164.118 88.6987 163.642 89.0207 162.788H90.2947ZM91.715 159.946C91.869 158.896 92.751 157.58 94.641 157.58C97.301 157.58 97.553 159.302 97.553 160.422V163.53C97.553 164.076 97.609 164.65 97.665 165H96.321C96.293 164.65 96.293 164.356 96.293 163.95V163.67H96.279C96.111 164.23 95.509 165.168 93.899 165.168C92.163 165.168 91.365 164.062 91.365 163.026C91.365 160.982 93.941 160.912 95.033 160.716C95.985 160.548 96.293 160.282 96.293 159.68C96.293 159.078 95.719 158.644 94.683 158.644C93.801 158.644 93.143 159.162 92.975 159.946H91.715ZM92.611 163.026C92.611 163.712 93.241 164.146 94.123 164.146C95.229 164.146 96.321 163.432 96.321 161.64L96.307 160.632C96.167 161.108 95.859 161.528 94.291 161.808C93.241 161.99 92.611 162.298 92.611 163.026ZM105.785 162.788C105.379 164.3 104.329 165.168 102.579 165.168C100.325 165.168 98.8689 163.572 98.8689 161.388C98.8689 159.204 100.325 157.594 102.579 157.594C104.427 157.594 105.421 158.616 105.729 159.932H104.469C104.203 159.274 103.713 158.63 102.537 158.63C101.067 158.63 100.129 159.834 100.129 161.388C100.129 162.928 101.067 164.118 102.537 164.118C103.587 164.118 104.189 163.642 104.511 162.788H105.785ZM108.591 156.404H107.247V155.004H108.591V156.404ZM107.219 165V157.762H108.479V165H107.219ZM113.555 165.168C111.357 165.168 109.929 163.516 109.929 161.388C109.929 159.26 111.357 157.594 113.555 157.594C115.753 157.594 117.181 159.26 117.181 161.388C117.181 163.516 115.753 165.168 113.555 165.168ZM111.189 161.388C111.189 162.872 112.141 164.104 113.555 164.104C114.969 164.104 115.921 162.872 115.921 161.388C115.921 159.89 114.969 158.658 113.555 158.658C112.141 158.658 111.189 159.89 111.189 161.388ZM112.841 156.838L114.087 155.004H115.683L113.765 156.838H112.841ZM118.526 165V157.762H119.786V159.12C120.164 158.294 120.836 157.594 121.956 157.594C123.86 157.594 124.574 158.84 124.574 160.31V165H123.314V160.436C123.314 159.162 122.768 158.658 121.788 158.658C120.724 158.658 119.786 159.554 119.786 161.444V165H118.526ZM132.292 157.594C133.608 157.594 134.518 158.476 134.784 159.232H134.798V155.004H136.058V165H134.798V163.558H134.784C134.518 164.3 133.608 165.168 132.292 165.168C130.248 165.168 128.988 163.6 128.988 161.36C128.988 159.12 130.248 157.594 132.292 157.594ZM130.248 161.36C130.248 162.928 131.018 164.09 132.544 164.09C134.112 164.09 134.84 162.788 134.84 161.36C134.84 159.946 134.112 158.658 132.544 158.658C131.06 158.658 130.248 159.792 130.248 161.36ZM144.186 162.844C143.78 164.384 142.562 165.168 140.952 165.168C138.81 165.168 137.396 163.614 137.396 161.346C137.396 159.162 138.88 157.594 140.924 157.594C143.472 157.594 144.27 159.638 144.298 161.5V161.724H138.614C138.712 163.236 139.636 164.118 140.924 164.118C141.89 164.118 142.702 163.74 142.954 162.844H144.186ZM138.628 160.716H143.024C142.912 159.456 142.212 158.63 140.924 158.63C139.622 158.63 138.796 159.47 138.628 160.716ZM73.7559 173.594C75.0719 173.594 75.9819 174.476 76.2479 175.232H76.2619V171.004H77.5219V181H76.2619V179.558H76.2479C75.9819 180.3 75.0719 181.168 73.7559 181.168C71.7119 181.168 70.4519 179.6 70.4519 177.36C70.4519 175.12 71.7119 173.594 73.7559 173.594ZM71.7119 177.36C71.7119 178.928 72.4819 180.09 74.0079 180.09C75.5759 180.09 76.3039 178.788 76.3039 177.36C76.3039 175.946 75.5759 174.658 74.0079 174.658C72.5239 174.658 71.7119 175.792 71.7119 177.36ZM85.6501 178.844C85.2441 180.384 84.0261 181.168 82.4161 181.168C80.2741 181.168 78.8601 179.614 78.8601 177.346C78.8601 175.162 80.3441 173.594 82.3881 173.594C84.9361 173.594 85.7341 175.638 85.7621 177.5V177.724H80.0781C80.1761 179.236 81.1001 180.118 82.3881 180.118C83.3541 180.118 84.1661 179.74 84.4181 178.844H85.6501ZM80.0921 176.716H84.4881C84.3761 175.456 83.6761 174.63 82.3881 174.63C81.0861 174.63 80.2601 175.47 80.0921 176.716ZM87.6738 172.95C87.6738 171.942 88.2198 171.004 89.5078 171.004H90.2918V172.068H89.8298C89.2838 172.068 88.9058 172.25 88.9058 173.006V173.762H90.1238V174.798H88.9058V181H87.6738V174.798H86.6798V173.762H87.6738V172.95ZM91.0519 175.946C91.2059 174.896 92.0879 173.58 93.9779 173.58C96.6379 173.58 96.8899 175.302 96.8899 176.422V179.53C96.8899 180.076 96.9459 180.65 97.0019 181H95.6579C95.6299 180.65 95.6299 180.356 95.6299 179.95V179.67H95.6159C95.4479 180.23 94.8459 181.168 93.2359 181.168C91.4999 181.168 90.7019 180.062 90.7019 179.026C90.7019 176.982 93.2779 176.912 94.3699 176.716C95.3219 176.548 95.6299 176.282 95.6299 175.68C95.6299 175.078 95.0559 174.644 94.0199 174.644C93.1379 174.644 92.4799 175.162 92.3119 175.946H91.0519ZM91.9479 179.026C91.9479 179.712 92.5779 180.146 93.4599 180.146C94.5659 180.146 95.6579 179.432 95.6579 177.64L95.6439 176.632C95.5039 177.108 95.1959 177.528 93.6279 177.808C92.5779 177.99 91.9479 178.298 91.9479 179.026ZM98.5978 178.452V173.762H99.8578V178.326C99.8578 179.6 100.404 180.104 101.384 180.104C102.448 180.104 103.386 179.208 103.386 177.318V173.762H104.646V181H103.386V179.642C103.008 180.468 102.336 181.168 101.216 181.168C99.3118 181.168 98.5978 179.922 98.5978 178.452ZM106.433 171.004H107.693V181H106.433V171.004ZM111.008 178.97C111.008 179.614 111.372 179.964 111.932 179.964H112.436V181H111.806C110.406 181 109.776 180.174 109.776 179.054V174.798H108.698V173.762H109.776V172.068L111.008 171.508V173.762H112.394V174.798H111.008V178.97ZM118.838 171.004H119.846L119.398 174.168H121.316L121.764 171.004H122.772L122.324 174.168H123.598V175.092H122.198L121.918 177.15H123.178V178.074H121.778L121.372 181H120.364L120.77 178.074H118.852L118.446 181H117.438L117.844 178.074H116.584V177.15H117.984L118.264 175.092H117.004V174.168H118.39L118.838 171.004ZM118.992 177.15H120.91L121.19 175.092H119.272L118.992 177.15ZM128.6 181H127.34V173.594H124.96V172.642C126.318 172.642 127.27 172.432 127.564 171.004H128.6V181Z" fill="black"/>
<path d="M52.2132 280.954H53.6692L56.6092 289.592H56.6652L59.6332 280.954H61.0892L57.4772 290.936L55.7972 290.95L52.2132 280.954ZM67.4597 288.794C67.0537 290.334 65.8357 291.118 64.2257 291.118C62.0837 291.118 60.6697 289.564 60.6697 287.296C60.6697 285.112 62.1537 283.544 64.1977 283.544C66.7457 283.544 67.5437 285.588 67.5717 287.45V287.674H61.8877C61.9857 289.186 62.9097 290.068 64.1977 290.068C65.1637 290.068 65.9757 289.69 66.2277 288.794H67.4597ZM61.9017 286.666H66.2977C66.1857 285.406 65.4857 284.58 64.1977 284.58C62.8957 284.58 62.0697 285.42 61.9017 286.666ZM70.2253 283.712V285.168C70.5893 284.104 71.2893 283.684 72.3813 283.684V284.888C72.3253 284.888 72.1013 284.902 71.9193 284.93C71.0793 285.056 70.2253 285.434 70.2253 287.534V290.95H68.9653V283.712H70.2253ZM74.8217 282.354H73.4777V280.954H74.8217V282.354ZM73.4497 290.95V283.712H74.7097V290.95H73.4497ZM76.8935 282.9C76.8935 281.892 77.4395 280.954 78.7275 280.954H79.5115V282.018H79.0495C78.5035 282.018 78.1255 282.2 78.1255 282.956V283.712H79.3435V284.748H78.1255V290.95H76.8935V284.748H75.8995V283.712H76.8935V282.9ZM80.6595 290.95V283.712H81.9195V290.95H80.6595ZM80.6875 282.354V280.954H82.0315V282.354H80.6875ZM90.2947 288.738C89.8887 290.25 88.8387 291.118 87.0887 291.118C84.8347 291.118 83.3787 289.522 83.3787 287.338C83.3787 285.154 84.8347 283.544 87.0887 283.544C88.9367 283.544 89.9307 284.566 90.2387 285.882H88.9787C88.7127 285.224 88.2227 284.58 87.0467 284.58C85.5767 284.58 84.6387 285.784 84.6387 287.338C84.6387 288.878 85.5767 290.068 87.0467 290.068C88.0967 290.068 88.6987 289.592 89.0207 288.738H90.2947ZM91.715 285.896C91.869 284.846 92.751 283.53 94.641 283.53C97.301 283.53 97.553 285.252 97.553 286.372V289.48C97.553 290.026 97.609 290.6 97.665 290.95H96.321C96.293 290.6 96.293 290.306 96.293 289.9V289.62H96.279C96.111 290.18 95.509 291.118 93.899 291.118C92.163 291.118 91.365 290.012 91.365 288.976C91.365 286.932 93.941 286.862 95.033 286.666C95.985 286.498 96.293 286.232 96.293 285.63C96.293 285.028 95.719 284.594 94.683 284.594C93.801 284.594 93.143 285.112 92.975 285.896H91.715ZM92.611 288.976C92.611 289.662 93.241 290.096 94.123 290.096C95.229 290.096 96.321 289.382 96.321 287.59L96.307 286.582C96.167 287.058 95.859 287.478 94.291 287.758C93.241 287.94 92.611 288.248 92.611 288.976ZM105.785 288.738C105.379 290.25 104.329 291.118 102.579 291.118C100.325 291.118 98.8689 289.522 98.8689 287.338C98.8689 285.154 100.325 283.544 102.579 283.544C104.427 283.544 105.421 284.566 105.729 285.882H104.469C104.203 285.224 103.713 284.58 102.537 284.58C101.067 284.58 100.129 285.784 100.129 287.338C100.129 288.878 101.067 290.068 102.537 290.068C103.587 290.068 104.189 289.592 104.511 288.738H105.785ZM108.591 282.354H107.247V280.954H108.591V282.354ZM107.219 290.95V283.712H108.479V290.95H107.219ZM113.555 291.118C111.357 291.118 109.929 289.466 109.929 287.338C109.929 285.21 111.357 283.544 113.555 283.544C115.753 283.544 117.181 285.21 117.181 287.338C117.181 289.466 115.753 291.118 113.555 291.118ZM111.189 287.338C111.189 288.822 112.141 290.054 113.555 290.054C114.969 290.054 115.921 288.822 115.921 287.338C115.921 285.84 114.969 284.608 113.555 284.608C112.141 284.608 111.189 285.84 111.189 287.338ZM112.841 282.788L114.087 280.954H115.683L113.765 282.788H112.841ZM118.526 290.95V283.712H119.786V285.07C120.164 284.244 120.836 283.544 121.956 283.544C123.86 283.544 124.574 284.79 124.574 286.26V290.95H123.314V286.386C123.314 285.112 122.768 284.608 121.788 284.608C120.724 284.608 119.786 285.504 119.786 287.394V290.95H118.526ZM132.292 283.544C133.608 283.544 134.518 284.426 134.784 285.182H134.798V280.954H136.058V290.95H134.798V289.508H134.784C134.518 290.25 133.608 291.118 132.292 291.118C130.248 291.118 128.988 289.55 128.988 287.31C128.988 285.07 130.248 283.544 132.292 283.544ZM130.248 287.31C130.248 288.878 131.018 290.04 132.544 290.04C134.112 290.04 134.84 288.738 134.84 287.31C134.84 285.896 134.112 284.608 132.544 284.608C131.06 284.608 130.248 285.742 130.248 287.31ZM144.186 288.794C143.78 290.334 142.562 291.118 140.952 291.118C138.81 291.118 137.396 289.564 137.396 287.296C137.396 285.112 138.88 283.544 140.924 283.544C143.472 283.544 144.27 285.588 144.298 287.45V287.674H138.614C138.712 289.186 139.636 290.068 140.924 290.068C141.89 290.068 142.702 289.69 142.954 288.794H144.186ZM138.628 286.666H143.024C142.912 285.406 142.212 284.58 140.924 284.58C139.622 284.58 138.796 285.42 138.628 286.666ZM72.587 299.544C73.903 299.544 74.813 300.426 75.079 301.182H75.093V296.954H76.353V306.95H75.093V305.508H75.079C74.813 306.25 73.903 307.118 72.587 307.118C70.543 307.118 69.283 305.55 69.283 303.31C69.283 301.07 70.543 299.544 72.587 299.544ZM70.543 303.31C70.543 304.878 71.313 306.04 72.839 306.04C74.407 306.04 75.135 304.738 75.135 303.31C75.135 301.896 74.407 300.608 72.839 300.608C71.355 300.608 70.543 301.742 70.543 303.31ZM84.4812 304.794C84.0752 306.334 82.8572 307.118 81.2472 307.118C79.1052 307.118 77.6912 305.564 77.6912 303.296C77.6912 301.112 79.1752 299.544 81.2192 299.544C83.7672 299.544 84.5652 301.588 84.5932 303.45V303.674H78.9092C79.0072 305.186 79.9312 306.068 81.2192 306.068C82.1852 306.068 82.9972 305.69 83.2492 304.794H84.4812ZM78.9232 302.666H83.3192C83.2072 301.406 82.5072 300.58 81.2192 300.58C79.9172 300.58 79.0912 301.42 78.9232 302.666ZM86.5048 298.9C86.5048 297.892 87.0508 296.954 88.3388 296.954H89.1228V298.018H88.6608C88.1148 298.018 87.7368 298.2 87.7368 298.956V299.712H88.9548V300.748H87.7368V306.95H86.5048V300.748H85.5108V299.712H86.5048V298.9ZM89.883 301.896C90.037 300.846 90.919 299.53 92.809 299.53C95.469 299.53 95.721 301.252 95.721 302.372V305.48C95.721 306.026 95.777 306.6 95.833 306.95H94.489C94.461 306.6 94.461 306.306 94.461 305.9V305.62H94.447C94.279 306.18 93.677 307.118 92.067 307.118C90.331 307.118 89.533 306.012 89.533 304.976C89.533 302.932 92.109 302.862 93.201 302.666C94.153 302.498 94.461 302.232 94.461 301.63C94.461 301.028 93.887 300.594 92.851 300.594C91.969 300.594 91.311 301.112 91.143 301.896H89.883ZM90.779 304.976C90.779 305.662 91.409 306.096 92.291 306.096C93.397 306.096 94.489 305.382 94.489 303.59L94.475 302.582C94.335 303.058 94.027 303.478 92.459 303.758C91.409 303.94 90.779 304.248 90.779 304.976ZM97.4289 304.402V299.712H98.6889V304.276C98.6889 305.55 99.2349 306.054 100.215 306.054C101.279 306.054 102.217 305.158 102.217 303.268V299.712H103.477V306.95H102.217V305.592C101.839 306.418 101.167 307.118 100.047 307.118C98.1429 307.118 97.4289 305.872 97.4289 304.402ZM105.264 296.954H106.524V306.95H105.264V296.954ZM109.839 304.92C109.839 305.564 110.203 305.914 110.763 305.914H111.267V306.95H110.637C109.237 306.95 108.607 306.124 108.607 305.004V300.748H107.529V299.712H108.607V298.018L109.839 297.458V299.712H111.225V300.748H109.839V304.92ZM117.669 296.954H118.677L118.229 300.118H120.147L120.595 296.954H121.603L121.155 300.118H122.429V301.042H121.029L120.749 303.1H122.009V304.024H120.609L120.203 306.95H119.195L119.601 304.024H117.683L117.277 306.95H116.269L116.675 304.024H115.415V303.1H116.815L117.095 301.042H115.835V300.118H117.221L117.669 296.954ZM117.823 303.1H119.741L120.021 301.042H118.103L117.823 303.1ZM123.898 300.132C123.898 298.004 125.13 296.898 127.23 296.898C129.092 296.898 130.338 297.99 130.338 299.796C130.338 301.546 129.498 302.148 128.364 303.03C127.188 303.954 125.816 304.682 125.424 305.886H130.436V306.95H123.758C123.898 304.766 125.354 303.618 126.712 302.708C128.28 301.658 129.078 301.056 129.078 299.852C129.078 298.83 128.406 297.962 127.16 297.962C125.774 297.962 125.172 298.97 125.158 300.132H123.898Z" fill="black"/>
<path d="M773.616 58.75H228.641V157.601H773.616V58.75Z" fill="white" stroke="#0151AF" stroke-width="1.5"/>
<path d="M577.696 111.304C577.056 115.336 573.76 117.512 569.824 117.512C565.024 117.512 560.864 114.248 560.864 108.712C560.864 103.144 565.024 99.976 569.824 99.976C573.792 99.976 577.056 102.216 577.632 105.992H573.408C572.864 104.264 571.456 103.496 569.792 103.496C567.04 103.496 565.344 105.8 565.344 108.744C565.344 111.688 567.04 113.992 569.792 113.992C571.456 113.992 573.024 113.192 573.504 111.304H577.696ZM597.886 107.656C597.886 113.224 595.358 117.544 588.734 117.544C581.982 117.544 579.294 113.48 579.294 107.656V94.152H583.998V107.656C583.998 111.048 585.374 113.512 588.734 113.512C591.934 113.512 593.182 111.048 593.182 107.656V94.152H597.886V107.656ZM604.313 109.544C604.505 112.136 606.393 113.64 608.953 113.64C611.385 113.64 612.793 112.68 612.793 110.728C612.793 108.552 610.905 108.008 607.993 107.112C604.217 105.992 600.473 104.648 600.473 100.008C600.441 95.656 604.601 93.608 608.793 93.608C613.369 93.608 616.793 95.688 617.305 100.936H612.601C612.185 98.568 610.969 97.48 608.665 97.48C606.681 97.48 605.113 98.28 605.113 100.168C605.113 101.928 606.841 102.76 609.753 103.624C613.657 104.776 617.433 105.896 617.433 110.76C617.433 115.432 613.241 117.544 608.953 117.544C603.961 117.544 599.993 115.016 599.481 109.544H604.313ZM626.671 94.152C634.639 94.152 638.991 98.376 638.991 105.32C638.991 112.52 634.639 117 626.703 117H619.503V94.152H626.671ZM624.207 113H626.671C631.279 113 634.191 110.472 634.191 105.32C634.191 100.488 631.279 98.152 626.703 98.152H624.207V113ZM661.775 109.704C660.559 114.504 656.591 117.416 650.959 117.416C644.207 117.416 639.375 112.712 639.375 105.608C639.375 98.568 644.239 93.736 651.023 93.736C656.751 93.736 660.367 96.616 661.807 101.448H657.167C655.983 98.824 653.871 97.736 651.023 97.736C646.991 97.736 644.079 101 644.079 105.608C644.079 110.12 647.023 113.416 651.023 113.416C654.351 113.416 656.207 112.072 657.135 109.704H661.775Z" fill="#0151AF"/>
<path d="M773.616 169.463H228.641V268.314H773.616V169.463Z" fill="white" stroke="#0151AF" stroke-width="1.5"/>
<path d="M580.736 218.656C580.736 224.224 578.208 228.544 571.584 228.544C564.832 228.544 562.144 224.48 562.144 218.656V205.152H566.848V218.656C566.848 222.048 568.224 224.512 571.584 224.512C574.784 224.512 576.032 222.048 576.032 218.656V205.152H580.736V218.656ZM587.163 220.544C587.355 223.136 589.243 224.64 591.803 224.64C594.235 224.64 595.643 223.68 595.643 221.728C595.643 219.552 593.755 219.008 590.843 218.112C587.067 216.992 583.323 215.648 583.323 211.008C583.291 206.656 587.451 204.608 591.643 204.608C596.219 204.608 599.643 206.688 600.155 211.936H595.451C595.035 209.568 593.819 208.48 591.515 208.48C589.531 208.48 587.963 209.28 587.963 211.168C587.963 212.928 589.691 213.76 592.603 214.624C596.507 215.776 600.283 216.896 600.283 221.76C600.283 226.432 596.091 228.544 591.803 228.544C586.811 228.544 582.843 226.016 582.331 220.544H587.163ZM609.521 205.152C617.489 205.152 621.841 209.376 621.841 216.32C621.841 223.52 617.489 228 609.553 228H602.353V205.152H609.521ZM607.057 224H609.521C614.129 224 617.041 221.472 617.041 216.32C617.041 211.488 614.129 209.152 609.553 209.152H607.057V224ZM644.625 220.704C643.409 225.504 639.441 228.416 633.809 228.416C627.057 228.416 622.225 223.712 622.225 216.608C622.225 209.568 627.089 204.736 633.873 204.736C639.601 204.736 643.217 207.616 644.657 212.448H640.017C638.833 209.824 636.721 208.736 633.873 208.736C629.841 208.736 626.929 212 626.929 216.608C626.929 221.12 629.873 224.416 633.873 224.416C637.201 224.416 639.057 223.072 639.985 220.704H644.625Z" fill="#0151AF"/>
<path d="M228.641 280.176H773.616V368.323C773.616 374.235 768.824 379.027 762.913 379.027H239.344C233.433 379.027 228.641 374.235 228.641 368.323V280.176Z" fill="white" stroke="#0151AF" stroke-width="1.5"/>
<path d="M580.736 329.656C580.736 335.224 578.208 339.544 571.584 339.544C564.832 339.544 562.144 335.48 562.144 329.656V316.152H566.848V329.656C566.848 333.048 568.224 335.512 571.584 335.512C574.784 335.512 576.032 333.048 576.032 329.656V316.152H580.736V329.656ZM587.163 331.544C587.355 334.136 589.243 335.64 591.803 335.64C594.235 335.64 595.643 334.68 595.643 332.728C595.643 330.552 593.755 330.008 590.843 329.112C587.067 327.992 583.323 326.648 583.323 322.008C583.291 317.656 587.451 315.608 591.643 315.608C596.219 315.608 599.643 317.688 600.155 322.936H595.451C595.035 320.568 593.819 319.48 591.515 319.48C589.531 319.48 587.963 320.28 587.963 322.168C587.963 323.928 589.691 324.76 592.603 325.624C596.507 326.776 600.283 327.896 600.283 332.76C600.283 337.432 596.091 339.544 591.803 339.544C586.811 339.544 582.843 337.016 582.331 331.544H587.163ZM609.521 316.152C617.489 316.152 621.841 320.376 621.841 327.32C621.841 334.52 617.489 339 609.553 339H602.353V316.152H609.521ZM607.057 335H609.521C614.129 335 617.041 332.472 617.041 327.32C617.041 322.488 614.129 320.152 609.553 320.152H607.057V335Z" fill="#0151AF"/>
<path d="M190.53 206.53C190.823 206.237 190.823 205.763 190.53 205.47L185.757 200.697C185.464 200.404 184.99 200.404 184.697 200.697C184.404 200.99 184.404 201.464 184.697 201.757L188.939 206L184.697 210.243C184.404 210.536 184.404 211.01 184.697 211.303C184.99 211.596 185.464 211.596 185.757 211.303L190.53 206.53ZM186.415 112C188.624 112 190.415 110.209 190.415 108C190.415 105.791 188.624 104 186.415 104C184.205 104 182.415 105.791 182.415 108C182.415 110.209 184.205 112 186.415 112ZM169 108V107.25H168.25V108H169ZM169 206H168.25V206.75H169V206ZM169 108.75H186.415V107.25H169V108.75ZM190 205.25C186.183 205.25 180.966 205.25 176.65 205.25C174.484 205.25 172.603 205.25 171.212 205.25C171.202 205.25 171.191 205.25 171.18 205.25C171.17 205.25 171.159 205.25 171.148 205.25C171.138 205.25 171.127 205.25 171.117 205.25C171.106 205.25 171.096 205.25 171.085 205.25C171.075 205.25 171.064 205.25 171.054 205.25C171.043 205.25 171.033 205.25 171.023 205.25C171.012 205.25 171.002 205.25 170.992 205.25C170.981 205.25 170.971 205.25 170.961 205.25C170.951 205.25 170.941 205.25 170.93 205.25C170.92 205.25 170.91 205.25 170.9 205.25C170.89 205.25 170.88 205.25 170.87 205.25C170.86 205.25 170.85 205.25 170.84 205.25C170.83 205.25 170.82 205.25 170.81 205.25C170.801 205.25 170.791 205.25 170.781 205.25C170.771 205.25 170.761 205.25 170.752 205.25C170.742 205.25 170.732 205.25 170.723 205.25C170.636 205.25 170.58 205.25 170.498 205.25C170.489 205.25 170.48 205.25 170.47 205.25C170.461 205.25 170.453 205.25 170.444 205.25C170.435 205.25 170.426 205.25 170.417 205.25C170.408 205.25 170.399 205.25 170.39 205.25C170.382 205.25 170.373 205.25 170.364 205.25C170.355 205.25 170.347 205.25 170.338 205.25C170.329 205.25 170.321 205.25 170.312 205.25C170.304 205.25 170.295 205.25 170.287 205.25C170.278 205.25 170.27 205.25 170.261 205.25C170.253 205.25 170.244 205.25 170.236 205.25C170.228 205.25 170.219 205.25 170.211 205.25C170.203 205.25 170.195 205.25 170.186 205.25C170.178 205.25 170.17 205.25 170.162 205.25C170.154 205.25 170.146 205.25 170.138 205.25C170.13 205.25 170.122 205.25 170.114 205.25C170.106 205.25 170.098 205.25 170.09 205.25C170.082 205.25 170.074 205.25 170.066 205.25C170.059 205.25 170.051 205.25 170.043 205.25C170.035 205.25 170.028 205.25 170.02 205.25C170.012 205.25 170.005 205.25 169.997 205.25C169.99 205.25 169.982 205.25 169.975 205.25C169.967 205.25 169.96 205.25 169.952 205.25C169.945 205.25 169.937 205.25 169.93 205.25C169.923 205.25 169.915 205.25 169.908 205.25C169.901 205.25 169.894 205.25 169.886 205.25C169.879 205.25 169.872 205.25 169.865 205.25C169.858 205.25 169.851 205.25 169.844 205.25C169.837 205.25 169.83 205.25 169.823 205.25C169.816 205.25 169.809 205.25 169.802 205.25C169.795 205.25 169.789 205.25 169.782 205.25C169.775 205.25 169.768 205.25 169.762 205.25C169.755 205.25 169.748 205.25 169.742 205.25C169.735 205.25 169.728 205.25 169.722 205.25C169.715 205.25 169.709 205.25 169.702 205.25C169.696 205.25 169.689 205.25 169.683 205.25C169.677 205.25 169.67 205.25 169.664 205.25C169.658 205.25 169.652 205.25 169.645 205.25C169.639 205.25 169.633 205.25 169.627 205.25C169.621 205.25 169.615 205.25 169.609 205.25C169.603 205.25 169.597 205.25 169.591 205.25C169.585 205.25 169.579 205.25 169.573 205.25C169.567 205.25 169.561 205.25 169.555 205.25C169.55 205.25 169.544 205.25 169.538 205.25C169.532 205.25 169.527 205.25 169.521 205.25C169.516 205.25 169.51 205.25 169.504 205.25C169.499 205.25 169.493 205.25 169.488 205.25C169.482 205.25 169.477 205.25 169.472 205.25C169.466 205.25 169.461 205.25 169.456 205.25C169.45 205.25 169.445 205.25 169.44 205.25C169.435 205.25 169.43 205.25 169.425 205.25C169.42 205.25 169.414 205.25 169.409 205.25C169.404 205.25 169.399 205.25 169.395 205.25C169.39 205.25 169.385 205.25 169.38 205.25C169.375 205.25 169.37 205.25 169.365 205.25C169.361 205.25 169.356 205.25 169.351 205.25C169.347 205.25 169.342 205.25 169.337 205.25C169.333 205.25 169.328 205.25 169.324 205.25C169.319 205.25 169.315 205.25 169.311 205.25C169.306 205.25 169.302 205.25 169.297 205.25C169.293 205.25 169.289 205.25 169.285 205.25C169.28 205.25 169.276 205.25 169.272 205.25C169.268 205.25 169.264 205.25 169.26 205.25C169.256 205.25 169.252 205.25 169.248 205.25C169.244 205.25 169.24 205.25 169.236 205.25C169.232 205.25 169.229 205.25 169.225 205.25C169.221 205.25 169.217 205.25 169.214 205.25C169.21 205.25 169.206 205.25 169.203 205.25C169.199 205.25 169.196 205.25 169.192 205.25C169.189 205.25 169.185 205.25 169.182 205.25C169.178 205.25 169.175 205.25 169.172 205.25C169.168 205.25 169.165 205.25 169.162 205.25C169.159 205.25 169.155 205.25 169.152 205.25C169.149 205.25 169.146 205.25 169.143 205.25C169.14 205.25 169.137 205.25 169.134 205.25C169.131 205.25 169.128 205.25 169.125 205.25C169.123 205.25 169.12 205.25 169.117 205.25C169.114 205.25 169.112 205.25 169.109 205.25C169.106 205.25 169.104 205.25 169.101 205.25C169.099 205.25 169.096 205.25 169.094 205.25C169.091 205.25 169.089 205.25 169.086 205.25C169.084 205.25 169.082 205.25 169.079 205.25C169.077 205.25 169.075 205.25 169.073 205.25C169.071 205.25 169.068 205.25 169.066 205.25C169.064 205.25 169.062 205.25 169.06 205.25C169.058 205.25 169.056 205.25 169.054 205.25C169.052 205.25 169.051 205.25 169.049 205.25C169.047 205.25 169.045 205.25 169.044 205.25C169.042 205.25 169.04 205.25 169.039 205.25C169.037 205.25 169.036 205.25 169.034 205.25C169.033 205.25 169.031 205.25 169.03 205.25C169.028 205.25 169.027 205.25 169.026 205.25C169.024 205.25 169.023 205.25 169.022 205.25C169.021 205.25 169.019 205.25 169.018 205.25C169.017 205.25 169.016 205.25 169.015 205.25C169.014 205.25 169.013 205.25 169.012 205.25C169.011 205.25 169.011 205.25 169.01 205.25C168.966 205.25 169.045 205.25 169.002 205.25C169.001 205.25 169 205.25 169 205.25C169 205.25 169 205.25 169 206C169 206.75 169 206.75 169 206.75C169 206.75 169 206.75 169.001 206.75C169.044 206.75 168.966 206.75 169.01 206.75C169.011 206.75 169.011 206.75 169.012 206.75C169.013 206.75 169.014 206.75 169.015 206.75C169.016 206.75 169.017 206.75 169.018 206.75C169.019 206.75 169.021 206.75 169.022 206.75C169.023 206.75 169.024 206.75 169.026 206.75C169.027 206.75 169.028 206.75 169.03 206.75C169.031 206.75 169.033 206.75 169.034 206.75C169.036 206.75 169.037 206.75 169.039 206.75C169.04 206.75 169.042 206.75 169.044 206.75C169.045 206.75 169.047 206.75 169.049 206.75C169.051 206.75 169.052 206.75 169.054 206.75C169.056 206.75 169.058 206.75 169.06 206.75C169.062 206.75 169.064 206.75 169.066 206.75C169.068 206.75 169.071 206.75 169.073 206.75C169.075 206.75 169.077 206.75 169.079 206.75C169.082 206.75 169.084 206.75 169.086 206.75C169.089 206.75 169.091 206.75 169.094 206.75C169.096 206.75 169.099 206.75 169.101 206.75C169.104 206.75 169.106 206.75 169.109 206.75C169.112 206.75 169.114 206.75 169.117 206.75C169.12 206.75 169.123 206.75 169.125 206.75C169.128 206.75 169.131 206.75 169.134 206.75C169.137 206.75 169.14 206.75 169.143 206.75C169.146 206.75 169.149 206.75 169.152 206.75C169.155 206.75 169.159 206.75 169.162 206.75C169.165 206.75 169.168 206.75 169.172 206.75C169.175 206.75 169.178 206.75 169.182 206.75C169.185 206.75 169.189 206.75 169.192 206.75C169.196 206.75 169.199 206.75 169.203 206.75C169.206 206.75 169.21 206.75 169.214 206.75C169.217 206.75 169.221 206.75 169.225 206.75C169.229 206.75 169.232 206.75 169.236 206.75C169.24 206.75 169.244 206.75 169.248 206.75C169.252 206.75 169.256 206.75 169.26 206.75C169.264 206.75 169.268 206.75 169.272 206.75C169.276 206.75 169.28 206.75 169.285 206.75C169.289 206.75 169.293 206.75 169.297 206.75C169.302 206.75 169.306 206.75 169.311 206.75C169.315 206.75 169.319 206.75 169.324 206.75C169.328 206.75 169.333 206.75 169.337 206.75C169.342 206.75 169.347 206.75 169.351 206.75C169.356 206.75 169.361 206.75 169.365 206.75C169.37 206.75 169.375 206.75 169.38 206.75C169.385 206.75 169.39 206.75 169.395 206.75C169.399 206.75 169.404 206.75 169.409 206.75C169.414 206.75 169.42 206.75 169.425 206.75C169.43 206.75 169.435 206.75 169.44 206.75C169.445 206.75 169.45 206.75 169.456 206.75C169.461 206.75 169.466 206.75 169.472 206.75C169.477 206.75 169.482 206.75 169.488 206.75C169.493 206.75 169.499 206.75 169.504 206.75C169.51 206.75 169.516 206.75 169.521 206.75C169.527 206.75 169.532 206.75 169.538 206.75C169.544 206.75 169.55 206.75 169.555 206.75C169.561 206.75 169.567 206.75 169.573 206.75C169.579 206.75 169.585 206.75 169.591 206.75C169.597 206.75 169.603 206.75 169.609 206.75C169.615 206.75 169.621 206.75 169.627 206.75C169.633 206.75 169.639 206.75 169.645 206.75C169.652 206.75 169.658 206.75 169.664 206.75C169.67 206.75 169.677 206.75 169.683 206.75C169.689 206.75 169.696 206.75 169.702 206.75C169.709 206.75 169.715 206.75 169.722 206.75C169.728 206.75 169.735 206.75 169.742 206.75C169.748 206.75 169.755 206.75 169.762 206.75C169.768 206.75 169.775 206.75 169.782 206.75C169.789 206.75 169.795 206.75 169.802 206.75C169.809 206.75 169.816 206.75 169.823 206.75C169.83 206.75 169.837 206.75 169.844 206.75C169.851 206.75 169.858 206.75 169.865 206.75C169.872 206.75 169.879 206.75 169.886 206.75C169.894 206.75 169.901 206.75 169.908 206.75C169.915 206.75 169.923 206.75 169.93 206.75C169.937 206.75 169.945 206.75 169.952 206.75C169.96 206.75 169.967 206.75 169.975 206.75C169.982 206.75 169.99 206.75 169.997 206.75C170.005 206.75 170.012 206.75 170.02 206.75C170.028 206.75 170.035 206.75 170.043 206.75C170.051 206.75 170.059 206.75 170.066 206.75C170.074 206.75 170.082 206.75 170.09 206.75C170.098 206.75 170.106 206.75 170.114 206.75C170.122 206.75 170.13 206.75 170.138 206.75C170.146 206.75 170.154 206.75 170.162 206.75C170.17 206.75 170.178 206.75 170.186 206.75C170.195 206.75 170.203 206.75 170.211 206.75C170.219 206.75 170.228 206.75 170.236 206.75C170.244 206.75 170.253 206.75 170.261 206.75C170.27 206.75 170.278 206.75 170.287 206.75C170.295 206.75 170.304 206.75 170.312 206.75C170.321 206.75 170.329 206.75 170.338 206.75C170.347 206.75 170.355 206.75 170.364 206.75C170.373 206.75 170.382 206.75 170.39 206.75C170.399 206.75 170.408 206.75 170.417 206.75C170.426 206.75 170.435 206.75 170.444 206.75C170.453 206.75 170.461 206.75 170.47 206.75C170.48 206.75 170.489 206.75 170.498 206.75C170.58 206.75 170.636 206.75 170.723 206.75C170.732 206.75 170.742 206.75 170.752 206.75C170.761 206.75 170.771 206.75 170.781 206.75C170.791 206.75 170.801 206.75 170.81 206.75C170.82 206.75 170.83 206.75 170.84 206.75C170.85 206.75 170.86 206.75 170.87 206.75C170.88 206.75 170.89 206.75 170.9 206.75C170.91 206.75 170.92 206.75 170.93 206.75C170.941 206.75 170.951 206.75 170.961 206.75C170.971 206.75 170.981 206.75 170.992 206.75C171.002 206.75 171.012 206.75 171.023 206.75C171.033 206.75 171.043 206.75 171.054 206.75C171.064 206.75 171.075 206.75 171.085 206.75C171.096 206.75 171.106 206.75 171.117 206.75C171.127 206.75 171.138 206.75 171.148 206.75C171.159 206.75 171.17 206.75 171.18 206.75C171.191 206.75 171.202 206.75 171.212 206.75C171.223 206.75 171.234 206.75 171.245 206.75C171.255 206.75 171.266 206.75 171.277 206.75C171.288 206.75 171.299 206.75 171.31 206.75C171.321 206.75 171.332 206.75 171.343 206.75C171.354 206.75 171.365 206.75 171.376 206.75C171.387 206.75 171.398 206.75 171.409 206.75C171.42 206.75 171.432 206.75 171.443 206.75C171.454 206.75 171.465 206.75 171.476 206.75C171.488 206.75 171.499 206.75 171.51 206.75C171.522 206.75 171.533 206.75 171.544 206.75C171.556 206.75 171.567 206.75 171.579 206.75C171.59 206.75 171.601 206.75 171.613 206.75C171.624 206.75 171.636 206.75 171.648 206.75C171.659 206.75 171.671 206.75 171.682 206.75C171.694 206.75 171.706 206.75 171.717 206.75C171.729 206.75 171.741 206.75 171.753 206.75C171.764 206.75 171.776 206.75 171.788 206.75C171.8 206.75 171.812 206.75 171.823 206.75C171.835 206.75 171.847 206.75 171.859 206.75C171.871 206.75 171.883 206.75 171.895 206.75C171.907 206.75 171.919 206.75 171.931 206.75C171.943 206.75 171.955 206.75 171.967 206.75C171.98 206.75 171.992 206.75 172.004 206.75C172.016 206.75 172.028 206.75 172.04 206.75C172.053 206.75 172.065 206.75 172.077 206.75C172.09 206.75 172.102 206.75 172.114 206.75C172.127 206.75 172.139 206.75 172.151 206.75C172.164 206.75 172.176 206.75 172.189 206.75C172.201 206.75 172.214 206.75 172.226 206.75C172.239 206.75 172.251 206.75 172.264 206.75C172.276 206.75 172.289 206.75 172.302 206.75C172.314 206.75 172.327 206.75 172.34 206.75C172.465 206.75 172.52 206.75 172.65 206.75C172.663 206.75 172.676 206.75 172.689 206.75C172.702 206.75 172.716 206.75 172.729 206.75C172.742 206.75 172.755 206.75 172.769 206.75C172.782 206.75 172.795 206.75 172.809 206.75C172.822 206.75 172.835 206.75 172.849 206.75C172.862 206.75 172.876 206.75 172.889 206.75C172.902 206.75 172.916 206.75 172.929 206.75C172.943 206.75 172.957 206.75 172.97 206.75C172.984 206.75 172.997 206.75 173.011 206.75C173.024 206.75 173.038 206.75 173.052 206.75C173.065 206.75 173.079 206.75 173.093 206.75C173.107 206.75 173.12 206.75 173.134 206.75C173.148 206.75 173.162 206.75 173.175 206.75C173.189 206.75 173.203 206.75 173.217 206.75C173.231 206.75 173.245 206.75 173.259 206.75C173.273 206.75 173.287 206.75 173.3 206.75C173.314 206.75 173.328 206.75 173.342 206.75C173.356 206.75 173.371 206.75 173.385 206.75C173.399 206.75 173.413 206.75 173.427 206.75C173.441 206.75 173.455 206.75 173.469 206.75C173.483 206.75 173.498 206.75 173.512 206.75C173.526 206.75 173.54 206.75 173.555 206.75C173.569 206.75 173.583 206.75 173.597 206.75C173.612 206.75 173.626 206.75 173.64 206.75C173.655 206.75 173.669 206.75 173.684 206.75C173.698 206.75 173.712 206.75 173.727 206.75C173.741 206.75 173.756 206.75 173.77 206.75C173.785 206.75 173.799 206.75 173.814 206.75C173.828 206.75 173.843 206.75 173.857 206.75C173.872 206.75 173.887 206.75 173.901 206.75C173.916 206.75 173.931 206.75 173.945 206.75C173.96 206.75 173.975 206.75 173.989 206.75C174.004 206.75 174.019 206.75 174.034 206.75C174.048 206.75 174.063 206.75 174.078 206.75C174.093 206.75 174.108 206.75 174.122 206.75C174.137 206.75 174.152 206.75 174.167 206.75C174.182 206.75 174.197 206.75 174.212 206.75C174.227 206.75 174.242 206.75 174.257 206.75C174.272 206.75 174.287 206.75 174.302 206.75C174.317 206.75 174.332 206.75 174.347 206.75C174.362 206.75 174.377 206.75 174.392 206.75C174.407 206.75 174.423 206.75 174.438 206.75C174.453 206.75 174.468 206.75 174.483 206.75C174.498 206.75 174.514 206.75 174.529 206.75C174.544 206.75 174.559 206.75 174.575 206.75C174.59 206.75 174.605 206.75 174.621 206.75C174.636 206.75 174.651 206.75 174.667 206.75C174.682 206.75 174.697 206.75 174.713 206.75C174.728 206.75 174.744 206.75 174.759 206.75C174.775 206.75 174.79 206.75 174.806 206.75C174.821 206.75 174.837 206.75 174.852 206.75C174.868 206.75 174.883 206.75 174.899 206.75C174.914 206.75 174.93 206.75 174.945 206.75C174.961 206.75 174.977 206.75 174.992 206.75C175.008 206.75 175.024 206.75 175.039 206.75C175.055 206.75 175.071 206.75 175.086 206.75C175.102 206.75 175.118 206.75 175.134 206.75C175.149 206.75 175.165 206.75 175.181 206.75C175.197 206.75 175.213 206.75 175.228 206.75C175.244 206.75 175.26 206.75 175.276 206.75C175.384 206.75 175.359 206.75 175.467 206.75C175.483 206.75 175.499 206.75 175.515 206.75C175.531 206.75 175.548 206.75 175.564 206.75C175.58 206.75 175.596 206.75 175.612 206.75C175.628 206.75 175.644 206.75 175.66 206.75C175.677 206.75 175.693 206.75 175.709 206.75C175.725 206.75 175.741 206.75 175.758 206.75C175.774 206.75 175.79 206.75 175.806 206.75C175.823 206.75 175.839 206.75 175.855 206.75C175.871 206.75 175.888 206.75 175.904 206.75C175.92 206.75 175.937 206.75 175.953 206.75C175.969 206.75 175.986 206.75 176.002 206.75C176.019 206.75 176.035 206.75 176.051 206.75C176.068 206.75 176.084 206.75 176.101 206.75C176.117 206.75 176.134 206.75 176.15 206.75C176.167 206.75 176.183 206.75 176.2 206.75C176.216 206.75 176.233 206.75 176.249 206.75C176.266 206.75 176.283 206.75 176.299 206.75C176.316 206.75 176.332 206.75 176.349 206.75C176.366 206.75 176.382 206.75 176.399 206.75C176.415 206.75 176.432 206.75 176.449 206.75C176.465 206.75 176.482 206.75 176.499 206.75C176.516 206.75 176.532 206.75 176.549 206.75C176.566 206.75 176.583 206.75 176.599 206.75C176.616 206.75 176.633 206.75 176.65 206.75C180.966 206.75 186.183 206.75 190 206.75V205.25ZM169.75 206V108H168.25V206H169.75Z" fill="#0151AF"/>
<path d="M190.53 332.53C190.823 332.237 190.823 331.763 190.53 331.47L185.757 326.697C185.464 326.404 184.99 326.404 184.697 326.697C184.404 326.99 184.404 327.464 184.697 327.757L188.939 332L184.697 336.243C184.404 336.536 184.404 337.01 184.697 337.303C184.99 337.596 185.464 337.596 185.757 337.303L190.53 332.53ZM186.415 239C188.624 239 190.415 237.209 190.415 235C190.415 232.791 188.624 231 186.415 231C184.205 231 182.415 232.791 182.415 235C182.415 237.209 184.205 239 186.415 239ZM169 235V234.25H168.25V235H169ZM169 332H168.25V332.75H169V332ZM169 235.75H186.415V234.25H169V235.75ZM190 331.25C186.196 331.25 180.953 331.25 176.65 331.25C176.633 331.25 176.616 331.25 176.599 331.25C176.583 331.25 176.566 331.25 176.549 331.25C176.532 331.25 176.516 331.25 176.499 331.25C176.482 331.25 176.465 331.25 176.449 331.25C176.432 331.25 176.415 331.25 176.399 331.25C176.382 331.25 176.366 331.25 176.349 331.25C176.332 331.25 176.316 331.25 176.299 331.25C176.283 331.25 176.266 331.25 176.249 331.25C176.233 331.25 176.216 331.25 176.2 331.25C176.183 331.25 176.167 331.25 176.15 331.25C176.134 331.25 176.117 331.25 176.101 331.25C176.084 331.25 176.068 331.25 176.051 331.25C176.035 331.25 176.019 331.25 176.002 331.25C175.986 331.25 175.969 331.25 175.953 331.25C175.937 331.25 175.92 331.25 175.904 331.25C175.888 331.25 175.871 331.25 175.855 331.25C175.839 331.25 175.823 331.25 175.806 331.25C175.79 331.25 175.774 331.25 175.758 331.25C175.741 331.25 175.725 331.25 175.709 331.25C175.693 331.25 175.677 331.25 175.66 331.25C175.644 331.25 175.628 331.25 175.612 331.25C175.596 331.25 175.58 331.25 175.564 331.25C175.548 331.25 175.531 331.25 175.515 331.25C175.499 331.25 175.483 331.25 175.467 331.25C175.451 331.25 175.435 331.25 175.419 331.25C175.403 331.25 175.387 331.25 175.371 331.25C175.355 331.25 175.34 331.25 175.324 331.25C175.308 331.25 175.292 331.25 175.276 331.25C175.26 331.25 175.244 331.25 175.228 331.25C175.213 331.25 175.197 331.25 175.181 331.25C175.165 331.25 175.149 331.25 175.134 331.25C175.118 331.25 175.102 331.25 175.086 331.25C175.071 331.25 175.055 331.25 175.039 331.25C175.024 331.25 175.008 331.25 174.992 331.25C174.977 331.25 174.961 331.25 174.945 331.25C174.93 331.25 174.914 331.25 174.899 331.25C174.883 331.25 174.868 331.25 174.852 331.25C174.837 331.25 174.821 331.25 174.806 331.25C174.79 331.25 174.775 331.25 174.759 331.25C174.744 331.25 174.728 331.25 174.713 331.25C174.697 331.25 174.682 331.25 174.667 331.25C174.651 331.25 174.636 331.25 174.621 331.25C174.605 331.25 174.59 331.25 174.575 331.25C174.559 331.25 174.544 331.25 174.529 331.25C174.514 331.25 174.498 331.25 174.483 331.25C174.468 331.25 174.453 331.25 174.438 331.25C174.423 331.25 174.407 331.25 174.392 331.25C174.377 331.25 174.362 331.25 174.347 331.25C174.332 331.25 174.317 331.25 174.302 331.25C174.287 331.25 174.272 331.25 174.257 331.25C174.242 331.25 174.227 331.25 174.212 331.25C174.197 331.25 174.182 331.25 174.167 331.25C174.152 331.25 174.137 331.25 174.122 331.25C174.108 331.25 174.093 331.25 174.078 331.25C174.063 331.25 174.048 331.25 174.034 331.25C174.019 331.25 174.004 331.25 173.989 331.25C173.975 331.25 173.96 331.25 173.945 331.25C173.931 331.25 173.916 331.25 173.901 331.25C173.887 331.25 173.872 331.25 173.857 331.25C173.843 331.25 173.828 331.25 173.814 331.25C173.799 331.25 173.785 331.25 173.77 331.25C173.756 331.25 173.741 331.25 173.727 331.25C173.712 331.25 173.698 331.25 173.684 331.25C173.669 331.25 173.655 331.25 173.64 331.25C173.626 331.25 173.612 331.25 173.597 331.25C173.583 331.25 173.569 331.25 173.555 331.25C173.54 331.25 173.526 331.25 173.512 331.25C173.498 331.25 173.483 331.25 173.469 331.25C173.455 331.25 173.441 331.25 173.427 331.25C173.413 331.25 173.399 331.25 173.385 331.25C173.371 331.25 173.356 331.25 173.342 331.25C173.328 331.25 173.314 331.25 173.3 331.25C173.287 331.25 173.273 331.25 173.259 331.25C173.245 331.25 173.231 331.25 173.217 331.25C173.203 331.25 173.189 331.25 173.175 331.25C173.162 331.25 173.148 331.25 173.134 331.25C173.12 331.25 173.107 331.25 173.093 331.25C173.079 331.25 173.065 331.25 173.052 331.25C173.038 331.25 173.024 331.25 173.011 331.25C172.997 331.25 172.984 331.25 172.97 331.25C172.957 331.25 172.943 331.25 172.929 331.25C172.916 331.25 172.902 331.25 172.889 331.25C172.876 331.25 172.862 331.25 172.849 331.25C172.835 331.25 172.822 331.25 172.809 331.25C172.795 331.25 172.782 331.25 172.769 331.25C172.755 331.25 172.742 331.25 172.729 331.25C172.716 331.25 172.702 331.25 172.689 331.25C172.676 331.25 172.663 331.25 172.65 331.25C172.637 331.25 172.623 331.25 172.61 331.25C172.597 331.25 172.584 331.25 172.571 331.25C172.558 331.25 172.545 331.25 172.532 331.25C172.519 331.25 172.506 331.25 172.493 331.25C172.48 331.25 172.468 331.25 172.455 331.25C172.442 331.25 172.429 331.25 172.416 331.25C172.403 331.25 172.391 331.25 172.378 331.25C172.365 331.25 172.352 331.25 172.34 331.25C172.327 331.25 172.314 331.25 172.302 331.25C172.289 331.25 172.276 331.25 172.264 331.25C172.251 331.25 172.239 331.25 172.226 331.25C172.214 331.25 172.201 331.25 172.189 331.25C172.176 331.25 172.164 331.25 172.151 331.25C172.139 331.25 172.127 331.25 172.114 331.25C172.102 331.25 172.09 331.25 172.077 331.25C172.065 331.25 172.053 331.25 172.04 331.25C172.028 331.25 172.016 331.25 172.004 331.25C171.992 331.25 171.98 331.25 171.967 331.25C171.955 331.25 171.943 331.25 171.931 331.25C171.919 331.25 171.907 331.25 171.895 331.25C171.883 331.25 171.871 331.25 171.859 331.25C171.847 331.25 171.835 331.25 171.823 331.25C171.812 331.25 171.8 331.25 171.788 331.25C171.776 331.25 171.764 331.25 171.753 331.25C171.741 331.25 171.729 331.25 171.717 331.25C171.706 331.25 171.694 331.25 171.682 331.25C171.671 331.25 171.659 331.25 171.648 331.25C171.636 331.25 171.624 331.25 171.613 331.25C171.601 331.25 171.59 331.25 171.579 331.25C171.567 331.25 171.556 331.25 171.544 331.25C171.533 331.25 171.522 331.25 171.51 331.25C171.499 331.25 171.488 331.25 171.476 331.25C171.465 331.25 171.454 331.25 171.443 331.25C171.432 331.25 171.42 331.25 171.409 331.25C171.398 331.25 171.387 331.25 171.376 331.25C171.365 331.25 171.354 331.25 171.343 331.25C171.332 331.25 171.321 331.25 171.31 331.25C171.299 331.25 171.288 331.25 171.277 331.25C171.266 331.25 171.255 331.25 171.245 331.25C171.234 331.25 171.223 331.25 171.212 331.25C170.571 331.25 169.926 331.25 169.591 331.25C169.585 331.25 169.579 331.25 169.573 331.25C169.567 331.25 169.561 331.25 169.555 331.25C169.55 331.25 169.544 331.25 169.538 331.25C169.532 331.25 169.527 331.25 169.521 331.25C169.516 331.25 169.51 331.25 169.504 331.25C169.499 331.25 169.493 331.25 169.488 331.25C169.482 331.25 169.477 331.25 169.472 331.25C169.466 331.25 169.461 331.25 169.456 331.25C169.45 331.25 169.445 331.25 169.44 331.25C169.435 331.25 169.43 331.25 169.425 331.25C169.42 331.25 169.414 331.25 169.409 331.25C169.404 331.25 169.399 331.25 169.395 331.25C169.39 331.25 169.385 331.25 169.38 331.25C169.375 331.25 169.37 331.25 169.365 331.25C169.361 331.25 169.356 331.25 169.351 331.25C169.347 331.25 169.342 331.25 169.337 331.25C169.333 331.25 169.328 331.25 169.324 331.25C169.319 331.25 169.315 331.25 169.311 331.25C169.306 331.25 169.302 331.25 169.297 331.25C169.293 331.25 169.289 331.25 169.285 331.25C169.28 331.25 169.276 331.25 169.272 331.25C169.268 331.25 169.264 331.25 169.26 331.25C169.256 331.25 169.252 331.25 169.248 331.25C169.244 331.25 169.24 331.25 169.236 331.25C169.232 331.25 169.229 331.25 169.225 331.25C169.221 331.25 169.217 331.25 169.214 331.25C169.21 331.25 169.206 331.25 169.203 331.25C169.199 331.25 169.196 331.25 169.192 331.25C169.189 331.25 169.185 331.25 169.182 331.25C169.178 331.25 169.175 331.25 169.172 331.25C169.168 331.25 169.165 331.25 169.162 331.25C169.159 331.25 169.155 331.25 169.152 331.25C169.149 331.25 169.146 331.25 169.143 331.25C169.14 331.25 169.137 331.25 169.134 331.25C169.131 331.25 169.128 331.25 169.125 331.25C169.123 331.25 169.12 331.25 169.117 331.25C169.114 331.25 169.112 331.25 169.109 331.25C169.106 331.25 169.104 331.25 169.101 331.25C169.099 331.25 169.096 331.25 169.094 331.25C169.091 331.25 169.089 331.25 169.086 331.25C169.084 331.25 169.082 331.25 169.079 331.25C169.077 331.25 169.075 331.25 169.073 331.25C169.071 331.25 169.068 331.25 169.066 331.25C169.064 331.25 169.062 331.25 169.06 331.25C169.058 331.25 169.056 331.25 169.054 331.25C169.052 331.25 169.051 331.25 169.049 331.25C169.047 331.25 169.045 331.25 169.044 331.25C169.042 331.25 169.04 331.25 169.039 331.25C169.037 331.25 169.036 331.25 169.034 331.25C169.033 331.25 169.031 331.25 169.03 331.25C169.028 331.25 169.027 331.25 169.026 331.25C169.024 331.25 169.023 331.25 169.022 331.25C169.021 331.25 169.019 331.25 169.018 331.25C169.017 331.25 169.016 331.25 169.015 331.25C169.014 331.25 169.013 331.25 169.012 331.25C169.011 331.25 169.011 331.25 169.01 331.25C169.009 331.25 169.008 331.25 169.007 331.25C169.007 331.25 169.006 331.25 169.005 331.25H169.004C169.003 331.25 169.003 331.25 169.002 331.25C169.001 331.25 169 331.25 169 331.25C169 331.25 169 331.25 169 332C169 332.75 169 332.75 169 332.75C169 332.75 169 332.75 169.001 332.75C169.002 332.75 169.003 332.75 169.004 332.75H169.005C169.006 332.75 169.007 332.75 169.007 332.75C169.008 332.75 169.009 332.75 169.01 332.75C169.011 332.75 169.011 332.75 169.012 332.75C169.013 332.75 169.014 332.75 169.015 332.75C169.016 332.75 169.017 332.75 169.018 332.75C169.019 332.75 169.021 332.75 169.022 332.75C169.023 332.75 169.024 332.75 169.026 332.75C169.027 332.75 169.028 332.75 169.03 332.75C169.031 332.75 169.033 332.75 169.034 332.75C169.036 332.75 169.037 332.75 169.039 332.75C169.04 332.75 169.042 332.75 169.044 332.75C169.045 332.75 169.047 332.75 169.049 332.75C169.051 332.75 169.052 332.75 169.054 332.75C169.056 332.75 169.058 332.75 169.06 332.75C169.062 332.75 169.064 332.75 169.066 332.75C169.068 332.75 169.071 332.75 169.073 332.75C169.075 332.75 169.077 332.75 169.079 332.75C169.082 332.75 169.084 332.75 169.086 332.75C169.089 332.75 169.091 332.75 169.094 332.75C169.096 332.75 169.099 332.75 169.101 332.75C169.104 332.75 169.106 332.75 169.109 332.75C169.112 332.75 169.114 332.75 169.117 332.75C169.12 332.75 169.123 332.75 169.125 332.75C169.128 332.75 169.131 332.75 169.134 332.75C169.137 332.75 169.14 332.75 169.143 332.75C169.146 332.75 169.149 332.75 169.152 332.75C169.155 332.75 169.159 332.75 169.162 332.75C169.165 332.75 169.168 332.75 169.172 332.75C169.175 332.75 169.178 332.75 169.182 332.75C169.185 332.75 169.189 332.75 169.192 332.75C169.196 332.75 169.199 332.75 169.203 332.75C169.206 332.75 169.21 332.75 169.214 332.75C169.217 332.75 169.221 332.75 169.225 332.75C169.229 332.75 169.232 332.75 169.236 332.75C169.24 332.75 169.244 332.75 169.248 332.75C169.252 332.75 169.256 332.75 169.26 332.75C169.264 332.75 169.268 332.75 169.272 332.75C169.276 332.75 169.28 332.75 169.285 332.75C169.289 332.75 169.293 332.75 169.297 332.75C169.302 332.75 169.306 332.75 169.311 332.75C169.315 332.75 169.319 332.75 169.324 332.75C169.328 332.75 169.333 332.75 169.337 332.75C169.342 332.75 169.347 332.75 169.351 332.75C169.356 332.75 169.361 332.75 169.365 332.75C169.37 332.75 169.375 332.75 169.38 332.75C169.385 332.75 169.39 332.75 169.395 332.75C169.399 332.75 169.404 332.75 169.409 332.75C169.414 332.75 169.42 332.75 169.425 332.75C169.43 332.75 169.435 332.75 169.44 332.75C169.445 332.75 169.45 332.75 169.456 332.75C169.461 332.75 169.466 332.75 169.472 332.75C169.477 332.75 169.482 332.75 169.488 332.75C169.493 332.75 169.499 332.75 169.504 332.75C169.51 332.75 169.516 332.75 169.521 332.75C169.527 332.75 169.532 332.75 169.538 332.75C169.544 332.75 169.55 332.75 169.555 332.75C169.561 332.75 169.567 332.75 169.573 332.75C169.579 332.75 169.585 332.75 169.591 332.75C169.926 332.75 170.571 332.75 171.212 332.75C172.639 332.75 174.448 332.75 176.65 332.75C180.953 332.75 186.196 332.75 190 332.75V331.25ZM169.75 332V235H168.25V332H169.75Z" fill="#0151AF"/>
<path d="M258.685 109.136V107.264H266.365L266.149 116H264.493L264.349 113.024C263.485 115.016 261.709 116.408 258.565 116.408C252.973 116.408 250.165 112.112 250.165 107.432C250.165 102.752 253.213 98.456 258.805 98.456C263.149 98.456 265.453 101.048 266.221 103.904H263.941C263.341 101.888 261.853 100.376 258.805 100.376C254.581 100.376 252.445 103.856 252.445 107.432C252.445 111.008 254.509 114.488 258.565 114.488C261.349 114.488 264.133 113.024 264.181 109.088L258.685 109.136ZM269.21 107.336C269.474 105.536 270.986 103.28 274.226 103.28C278.786 103.28 279.218 106.232 279.218 108.152V113.48C279.218 114.416 279.314 115.4 279.41 116H277.106C277.058 115.4 277.058 114.896 277.058 114.2V113.72H277.034C276.746 114.68 275.714 116.288 272.954 116.288C269.978 116.288 268.61 114.392 268.61 112.616C268.61 109.112 273.026 108.992 274.898 108.656C276.53 108.368 277.058 107.912 277.058 106.88C277.058 105.848 276.074 105.104 274.298 105.104C272.786 105.104 271.658 105.992 271.37 107.336H269.21ZM270.746 112.616C270.746 113.792 271.826 114.536 273.338 114.536C275.234 114.536 277.106 113.312 277.106 110.24L277.082 108.512C276.842 109.328 276.314 110.048 273.626 110.528C271.826 110.84 270.746 111.368 270.746 112.616ZM284.402 103.592V106.088C285.026 104.264 286.226 103.544 288.098 103.544V105.608C288.002 105.608 287.618 105.632 287.306 105.68C285.866 105.896 284.402 106.544 284.402 110.144V116H282.242V103.592H284.402ZM289.507 107.336C289.771 105.536 291.283 103.28 294.523 103.28C299.083 103.28 299.515 106.232 299.515 108.152V113.48C299.515 114.416 299.611 115.4 299.707 116H297.403C297.355 115.4 297.355 114.896 297.355 114.2V113.72H297.331C297.043 114.68 296.011 116.288 293.251 116.288C290.275 116.288 288.907 114.392 288.907 112.616C288.907 109.112 293.323 108.992 295.195 108.656C296.827 108.368 297.355 107.912 297.355 106.88C297.355 105.848 296.371 105.104 294.595 105.104C293.083 105.104 291.955 105.992 291.667 107.336H289.507ZM291.043 112.616C291.043 113.792 292.123 114.536 293.635 114.536C295.531 114.536 297.403 113.312 297.403 110.24L297.379 108.512C297.139 109.328 296.611 110.048 293.923 110.528C292.123 110.84 291.043 111.368 291.043 112.616ZM302.539 116V103.592H304.699V105.92C305.347 104.504 306.499 103.304 308.419 103.304C311.683 103.304 312.907 105.44 312.907 107.96V116H310.747V108.176C310.747 105.992 309.811 105.128 308.131 105.128C306.307 105.128 304.699 106.664 304.699 109.904V116H302.539ZM318.49 112.52C318.49 113.624 319.114 114.224 320.074 114.224H320.938V116H319.858C317.458 116 316.378 114.584 316.378 112.664V105.368H314.53V103.592H316.378V100.688L318.49 99.728V103.592H320.866V105.368H318.49V112.52ZM323.187 116V103.592H325.347V116H323.187ZM323.043 102.008L325.179 98.864H327.915L324.627 102.008H323.043ZM328.132 107.336C328.396 105.536 329.908 103.28 333.148 103.28C337.708 103.28 338.14 106.232 338.14 108.152V113.48C338.14 114.416 338.236 115.4 338.332 116H336.028C335.98 115.4 335.98 114.896 335.98 114.2V113.72H335.956C335.668 114.68 334.636 116.288 331.876 116.288C328.9 116.288 327.532 114.392 327.532 112.616C327.532 109.112 331.948 108.992 333.82 108.656C335.452 108.368 335.98 107.912 335.98 106.88C335.98 105.848 334.996 105.104 333.22 105.104C331.708 105.104 330.58 105.992 330.292 107.336H328.132ZM329.668 112.616C329.668 113.792 330.748 114.536 332.26 114.536C334.156 114.536 336.028 113.312 336.028 110.24L336.004 108.512C335.764 109.328 335.236 110.048 332.548 110.528C330.748 110.84 329.668 111.368 329.668 112.616Z" fill="#0151AF"/>
<path d="M251.787 232.43V215.294H257.931C261.843 215.294 263.739 217.478 263.739 220.166C263.739 222.614 262.083 224.174 260.163 224.63C261.819 225.062 262.323 226.358 262.971 228.518C263.451 230.102 263.811 231.062 264.459 232.19V232.43H262.035C261.459 231.254 261.027 229.67 260.523 228.326C259.923 226.718 259.227 225.422 257.163 225.422H254.067V232.43H251.787ZM254.067 223.502H257.835C260.259 223.502 261.435 222.182 261.435 220.166C261.435 218.63 260.595 217.214 257.691 217.214H254.067V223.502ZM277.207 228.734C276.511 231.374 274.423 232.718 271.663 232.718C267.991 232.718 265.567 230.054 265.567 226.166C265.567 222.422 268.111 219.734 271.615 219.734C275.983 219.734 277.351 223.238 277.399 226.43V226.814H267.655C267.823 229.406 269.407 230.918 271.615 230.918C273.271 230.918 274.663 230.27 275.095 228.734H277.207ZM267.679 225.086H275.215C275.023 222.926 273.823 221.51 271.615 221.51C269.383 221.51 267.967 222.95 267.679 225.086ZM280.676 218.63C280.676 216.902 281.612 215.294 283.82 215.294H285.164V217.118H284.372C283.436 217.118 282.788 217.43 282.788 218.726V220.022H284.876V221.798H282.788V232.43H280.676V221.798H278.972V220.022H280.676V218.63ZM297.363 228.734C296.667 231.374 294.579 232.718 291.819 232.718C288.147 232.718 285.723 230.054 285.723 226.166C285.723 222.422 288.267 219.734 291.771 219.734C296.139 219.734 297.507 223.238 297.555 226.43V226.814H287.811C287.979 229.406 289.563 230.918 291.771 230.918C293.427 230.918 294.819 230.27 295.251 228.734H297.363ZM287.835 225.086H295.371C295.179 222.926 293.979 221.51 291.771 221.51C289.539 221.51 288.123 222.95 287.835 225.086ZM302.105 220.022V222.518C302.729 220.694 303.929 219.974 305.801 219.974V222.038C305.705 222.038 305.321 222.062 305.009 222.11C303.569 222.326 302.105 222.974 302.105 226.574V232.43H299.945V220.022H302.105ZM318.645 228.734C317.949 231.374 315.861 232.718 313.101 232.718C309.429 232.718 307.005 230.054 307.005 226.166C307.005 222.422 309.549 219.734 313.053 219.734C317.421 219.734 318.789 223.238 318.837 226.43V226.814H309.093C309.261 229.406 310.845 230.918 313.053 230.918C314.709 230.918 316.101 230.27 316.533 228.734H318.645ZM309.117 225.086H316.653C316.461 222.926 315.261 221.51 313.053 221.51C310.821 221.51 309.405 222.95 309.117 225.086ZM321.226 232.43V220.022H323.386V222.35C324.034 220.934 325.186 219.734 327.106 219.734C330.37 219.734 331.594 221.87 331.594 224.39V232.43H329.434V224.606C329.434 222.422 328.498 221.558 326.818 221.558C324.994 221.558 323.386 223.094 323.386 226.334V232.43H321.226ZM345.65 228.638C344.954 231.23 343.154 232.718 340.154 232.718C336.29 232.718 333.794 229.982 333.794 226.238C333.794 222.494 336.29 219.734 340.154 219.734C343.322 219.734 345.026 221.486 345.554 223.742H343.394C342.938 222.614 342.098 221.51 340.082 221.51C337.562 221.51 335.954 223.574 335.954 226.238C335.954 228.878 337.562 230.918 340.082 230.918C341.882 230.918 342.914 230.102 343.466 228.638H345.65ZM350.461 217.694H348.157V215.294H350.461V217.694ZM348.109 232.43V220.022H350.269V232.43H348.109ZM353.241 223.766C353.505 221.966 355.017 219.71 358.257 219.71C362.817 219.71 363.249 222.662 363.249 224.582V229.91C363.249 230.846 363.345 231.83 363.441 232.43H361.137C361.089 231.83 361.089 231.326 361.089 230.63V230.15H361.065C360.777 231.11 359.745 232.718 356.985 232.718C354.009 232.718 352.641 230.822 352.641 229.046C352.641 225.542 357.057 225.422 358.929 225.086C360.561 224.798 361.089 224.342 361.089 223.31C361.089 222.278 360.105 221.534 358.329 221.534C356.817 221.534 355.689 222.422 355.401 223.766H353.241ZM354.777 229.046C354.777 230.222 355.857 230.966 357.369 230.966C359.265 230.966 361.137 229.742 361.137 226.67L361.113 224.942C360.873 225.758 360.345 226.478 357.657 226.958C355.857 227.27 354.777 227.798 354.777 229.046Z" fill="#0151AF"/>
<path d="M258.951 325.886C264.495 325.886 267.831 330.038 267.831 334.862C267.831 339.686 264.495 343.838 258.951 343.838C253.407 343.838 250.071 339.686 250.071 334.862C250.071 330.038 253.407 325.886 258.951 325.886ZM252.351 334.862C252.351 338.462 254.679 341.918 258.951 341.918C263.223 341.918 265.551 338.462 265.551 334.862C265.551 331.262 263.223 327.806 258.951 327.806C254.679 327.806 252.351 331.262 252.351 334.862ZM276.744 330.734C280.248 330.734 282.408 333.35 282.408 337.19C282.408 341.03 280.248 343.718 276.744 343.718C274.488 343.718 272.928 342.23 272.472 340.958H272.448V343.43H270.288V326.294H272.448V333.542H272.472C272.928 332.246 274.488 330.734 276.744 330.734ZM272.376 337.19C272.376 339.638 273.624 341.87 276.312 341.87C278.928 341.87 280.248 339.878 280.248 337.19C280.248 334.502 278.856 332.558 276.312 332.558C273.624 332.558 272.376 334.766 272.376 337.19ZM287.063 328.694H284.759V326.294H287.063V328.694ZM282.551 348.158V346.334H283.463C284.471 346.334 284.903 346.166 284.903 345.014V331.022H287.015V345.062C287.015 346.79 286.223 348.158 284.015 348.158H282.551ZM301.012 339.734C300.316 342.374 298.228 343.718 295.468 343.718C291.796 343.718 289.372 341.054 289.372 337.166C289.372 333.422 291.916 330.734 295.42 330.734C299.788 330.734 301.156 334.238 301.204 337.43V337.814H291.46C291.628 340.406 293.212 341.918 295.42 341.918C297.076 341.918 298.468 341.27 298.9 339.734H301.012ZM291.484 336.086H299.02C298.828 333.926 297.628 332.51 295.42 332.51C293.188 332.51 291.772 333.95 291.484 336.086ZM306.209 339.95C306.209 341.054 306.833 341.654 307.793 341.654H308.657V343.43H307.577C305.177 343.43 304.097 342.014 304.097 340.094V332.798H302.249V331.022H304.097V328.118L306.209 327.158V331.022H308.585V332.798H306.209V339.95ZM313.258 328.694H310.954V326.294H313.258V328.694ZM310.906 343.43V331.022H313.066V343.43H310.906ZM317.328 331.022C318.504 334.43 319.656 337.838 320.832 341.246H320.856L324.312 331.022H326.664C325.104 335.15 323.568 339.302 322.008 343.43H319.632C318.072 339.302 316.536 335.15 314.976 331.022H317.328ZM333.557 343.718C329.789 343.718 327.341 340.886 327.341 337.238C327.341 333.59 329.789 330.734 333.557 330.734C337.325 330.734 339.773 333.59 339.773 337.238C339.773 340.886 337.325 343.718 333.557 343.718ZM329.501 337.238C329.501 339.782 331.133 341.894 333.557 341.894C335.981 341.894 337.613 339.782 337.613 337.238C337.613 334.67 335.981 332.558 333.557 332.558C331.133 332.558 329.501 334.67 329.501 337.238Z" fill="#0151AF"/>
</g>
<defs>
<clipPath id="clip0_1_2">
<rect width="826" height="439" fill="white"/>
</clipPath>
</defs>
</svg>
